<?xml version="1.0" standalone="no"?>
<!DOCTYPE svg PUBLIC "-//W3C//DTD SVG 20010904//EN"
 "http://www.w3.org/TR/2001/REC-SVG-20010904/DTD/svg10.dtd">
<svg version="1.0" xmlns="http://www.w3.org/2000/svg"
 width="1184.000000pt" height="1184.000000pt" viewBox="0 0 1184.000000 1184.000000"
 preserveAspectRatio="xMidYMid meet">
<metadata>
Created by potrace 1.14, written by Peter Selinger 2001-2017
</metadata>
<g transform="translate(0.000000,1184.000000) scale(0.100000,-0.100000)"
fill="#000000" stroke="none">
<path d="M7978 11835 c-2 -2 -52 -6 -113 -9 -60 -3 -128 -8 -150 -11 -22 -2
-71 -7 -110 -10 -38 -3 -83 -7 -100 -9 -16 -2 -60 -6 -96 -10 -36 -4 -76 -9
-90 -11 -13 -2 -45 -7 -71 -9 -53 -7 -108 -14 -153 -21 -16 -3 -50 -7 -75 -10
-25 -3 -70 -10 -100 -15 -30 -5 -71 -11 -90 -14 -19 -3 -73 -12 -120 -20 -47
-8 -103 -17 -125 -21 -22 -3 -47 -7 -55 -10 -8 -2 -31 -6 -50 -9 -19 -3 -46
-8 -60 -11 -14 -3 -41 -8 -60 -11 -19 -3 -150 -28 -290 -55 -140 -27 -266 -51
-280 -54 -14 -3 -36 -7 -50 -10 -14 -3 -36 -7 -50 -10 -14 -3 -36 -7 -50 -10
-14 -3 -36 -8 -50 -10 -146 -28 -211 -41 -370 -70 -235 -43 -361 -66 -445 -80
-16 -3 -41 -8 -55 -11 -14 -3 -38 -8 -54 -10 -52 -6 -61 -14 -96 -87 -32 -66
-198 -392 -490 -962 -62 -121 -173 -339 -247 -485 -255 -499 -396 -775 -503
-985 -156 -304 -328 -643 -480 -940 -73 -143 -183 -359 -245 -480 -62 -121
-174 -341 -250 -490 -76 -148 -186 -364 -245 -480 -59 -115 -169 -331 -245
-480 -76 -148 -188 -369 -250 -490 -62 -121 -170 -332 -240 -470 -70 -137
-178 -349 -240 -470 -116 -227 -265 -519 -495 -970 -73 -143 -179 -351 -237
-462 l-104 -203 584 0 584 0 78 173 c84 185 110 243 174 380 23 49 41 90 41
92 0 2 21 48 46 102 26 54 63 136 84 183 36 81 50 112 141 308 22 46 39 86 39
88 0 2 20 45 43 96 24 51 56 121 72 156 15 34 29 62 30 62 4 0 547 89 575 95
14 2 41 7 60 9 19 3 46 7 60 10 27 5 100 17 188 30 32 5 87 14 122 21 14 3 41
7 60 10 19 3 60 10 90 15 30 5 73 11 95 15 22 3 63 9 90 15 28 5 69 11 93 14
24 3 46 7 50 10 4 2 30 6 57 10 28 3 61 8 75 11 46 8 624 103 670 110 25 3 52
8 60 10 8 3 31 7 50 9 19 3 53 8 75 11 46 8 506 83 548 90 15 3 39 7 55 10 97
16 344 56 377 61 85 11 76 22 101 -116 12 -69 25 -138 28 -155 3 -16 13 -70
21 -120 18 -101 18 -99 45 -250 12 -60 30 -159 40 -220 11 -60 22 -121 25
-135 3 -14 14 -77 25 -140 12 -63 23 -126 25 -140 3 -14 32 -176 65 -360 33
-184 62 -344 64 -355 2 -11 11 -64 21 -118 l17 -97 394 0 c217 0 394 2 394 4
0 5 -83 456 -105 566 -8 41 -16 86 -19 100 -15 87 -34 194 -92 505 -35 193
-66 364 -69 380 -4 17 -28 149 -55 295 -27 146 -56 301 -64 345 -25 130 -25
135 -14 135 6 0 144 23 307 50 163 28 310 53 326 55 17 3 43 8 58 11 16 3 38
7 50 9 12 1 51 8 87 15 36 7 74 14 85 16 11 2 34 6 50 9 17 3 77 14 135 25 58
11 114 22 125 24 646 124 1276 300 1725 481 461 186 800 392 1048 638 82 81
111 117 269 332 292 398 451 811 527 1370 28 201 28 701 1 866 -3 22 -10 72
-21 159 -7 52 -51 270 -68 331 -8 30 -24 88 -35 129 -111 410 -337 848 -603
1167 -103 123 -311 326 -367 357 -9 5 -18 12 -21 16 -3 3 -21 17 -40 30 -19
14 -39 28 -45 33 -5 4 -46 32 -90 61 -44 28 -109 72 -146 97 -100 68 -145 93
-265 147 -185 83 -453 158 -667 187 -27 4 -57 8 -67 10 -10 2 -51 7 -92 10
-40 4 -89 9 -108 12 -40 5 -687 13 -692 8z m227 -920 c177 -6 209 -8 310 -20
79 -10 191 -29 300 -50 319 -63 693 -235 925 -425 149 -122 320 -319 427 -490
39 -63 143 -262 143 -273 0 -4 11 -31 25 -62 55 -119 144 -415 164 -546 36
-232 37 -662 1 -839 -5 -25 -12 -56 -14 -70 -10 -59 -28 -126 -58 -218 -17
-53 -33 -99 -33 -102 -33 -101 -205 -407 -266 -470 -8 -8 -30 -35 -50 -60
-228 -283 -657 -571 -1114 -749 -44 -18 -89 -36 -100 -40 -41 -19 -190 -70
-310 -108 -303 -94 -789 -212 -1100 -267 -16 -3 -41 -8 -55 -11 -14 -3 -52
-10 -85 -16 -33 -5 -94 -17 -135 -25 -41 -8 -88 -16 -105 -18 -16 -2 -86 -13
-155 -25 -69 -12 -136 -24 -150 -26 -14 -2 -110 -18 -213 -35 -104 -18 -191
-30 -194 -26 -3 3 -10 27 -14 53 -5 27 -11 62 -14 78 -3 17 -35 188 -71 380
-86 461 -117 626 -154 825 -24 131 -87 466 -115 620 -4 23 -90 481 -101 540
-3 14 -30 158 -60 320 -30 162 -63 342 -74 400 -100 526 -109 584 -106 685 2
55 9 120 14 145 6 25 13 56 16 70 8 42 35 112 68 175 113 217 282 367 505 451
54 20 362 88 498 108 22 4 105 17 185 31 80 13 169 27 199 30 30 4 62 8 72 10
10 2 49 7 86 10 37 4 76 9 86 11 10 2 55 6 100 10 45 3 98 7 117 9 19 2 116 6
215 10 99 4 182 9 183 10 2 2 9 2 15 0 7 -2 93 -6 192 -10z m-3336 -1357 c12
-60 50 -260 57 -298 14 -76 68 -359 85 -445 11 -55 22 -115 25 -134 3 -18 8
-43 10 -55 7 -29 12 -58 30 -156 22 -117 23 -119 28 -138 3 -9 8 -37 11 -62 4
-24 8 -47 10 -50 1 -3 6 -27 9 -54 4 -27 9 -52 11 -55 1 -3 6 -22 9 -42 3 -19
16 -93 30 -165 14 -71 39 -203 56 -294 18 -91 34 -174 36 -185 2 -11 17 -90
34 -175 16 -85 41 -216 55 -290 14 -74 27 -144 30 -155 3 -17 15 -81 50 -265
3 -14 9 -50 15 -80 6 -30 12 -66 15 -80 3 -14 8 -38 10 -55 3 -16 12 -61 20
-100 8 -38 16 -81 18 -95 3 -14 17 -88 31 -165 15 -77 28 -146 29 -154 2 -14
-20 -22 -103 -35 -29 -4 -135 -23 -400 -71 -78 -14 -139 -25 -170 -30 -19 -3
-69 -12 -110 -20 -41 -8 -91 -17 -110 -20 -45 -7 -46 -8 -285 -50 -110 -20
-216 -38 -235 -41 -19 -3 -42 -7 -50 -9 -16 -5 -181 -35 -215 -39 -11 -2 -33
-6 -50 -9 -16 -4 -46 -9 -65 -13 -19 -3 -60 -10 -90 -15 -30 -5 -80 -14 -110
-19 -30 -6 -66 -12 -80 -15 -30 -6 -231 -42 -280 -50 -19 -3 -82 -14 -140 -25
-58 -11 -121 -22 -140 -25 -19 -3 -80 -14 -135 -25 -55 -10 -118 -21 -140 -24
-23 -4 -51 -8 -62 -10 -21 -4 -20 -1 11 57 18 34 91 175 161 312 70 138 165
322 210 410 83 160 187 363 382 745 58 113 147 286 198 385 51 99 139 270 195
380 147 286 296 576 385 750 42 83 138 269 212 415 75 146 161 315 193 375 32
61 104 201 161 312 115 225 130 240 148 151z"/>
<path d="M2978 1855 c-2 -1 -25 -5 -53 -8 -180 -19 -338 -152 -399 -335 -28
-84 -29 -92 -32 -312 -2 -202 6 -292 30 -355 4 -11 13 -33 19 -50 31 -87 142
-209 230 -253 202 -101 513 -54 663 99 l37 38 1 235 1 235 -30 3 c-16 2 -122
1 -234 -2 l-205 -5 0 -40 -1 -40 180 -5 179 -5 1 -169 0 -169 -32 -32 c-66
-66 -167 -100 -303 -104 -190 -5 -334 99 -401 290 -20 58 -23 85 -25 279 -2
241 6 302 54 397 75 149 207 222 377 210 104 -7 179 -36 233 -89 50 -48 77
-97 87 -153 12 -74 11 -73 63 -70 45 2 47 3 47 31 1 53 -26 138 -62 191 -41
63 -91 104 -167 139 -65 30 -82 34 -161 40 -33 3 -68 6 -77 8 -9 2 -18 3 -20
1z"/>
<path d="M5293 1844 c-218 -37 -369 -204 -408 -452 -8 -48 -8 -378 -1 -427 25
-164 72 -263 170 -352 96 -88 190 -121 342 -121 153 0 253 38 352 136 63 60
96 116 133 222 20 59 23 86 25 290 3 245 -6 313 -52 418 -68 154 -219 271
-372 288 -96 10 -120 10 -189 -2z m229 -104 c26 -7 53 -18 59 -26 6 -8 17 -14
24 -14 7 0 35 -22 62 -49 64 -63 106 -149 128 -266 7 -39 7 -344 -1 -415 -16
-151 -98 -286 -207 -341 -133 -69 -331 -55 -437 29 -55 45 -109 129 -134 212
-21 67 -23 96 -25 285 -1 182 1 220 19 289 43 167 144 275 285 304 54 11 169
7 227 -8z"/>
<path d="M579 1819 c-4 -9 -18 -43 -30 -75 -11 -33 -43 -117 -69 -189 -27 -71
-67 -182 -89 -245 -23 -63 -45 -124 -50 -135 -5 -11 -30 -78 -56 -150 -25 -71
-59 -164 -75 -205 -82 -216 -111 -301 -106 -309 6 -9 94 -7 103 3 2 2 31 78
64 168 32 89 63 170 67 178 8 13 52 15 299 15 l289 1 66 -185 65 -186 44 -1
c24 0 49 2 55 5 11 6 -35 139 -277 796 -32 88 -89 243 -126 345 l-68 184 -48
1 c-35 0 -51 -4 -58 -16z m124 -324 c36 -99 90 -250 120 -335 30 -85 58 -162
61 -170 6 -14 -24 -16 -249 -16 -253 0 -255 0 -249 20 14 47 247 686 250 684
1 -2 32 -84 67 -183z"/>
<path d="M1378 1815 c-2 -11 -3 -310 -3 -665 l0 -644 48 -1 c26 -1 51 3 55 9
4 6 8 124 8 261 1 138 2 257 3 266 1 14 27 16 219 17 165 2 230 6 272 18 30 9
65 18 78 21 12 3 22 9 22 14 0 5 6 9 14 9 27 0 116 98 144 157 24 52 27 69 27
168 0 98 -3 116 -27 167 -35 75 -86 129 -156 166 -93 48 -140 54 -432 56 -263
2 -269 2 -272 -19z m620 -104 c67 -30 127 -98 147 -164 50 -170 -24 -328 -177
-375 -56 -18 -95 -21 -272 -22 -161 0 -206 2 -207 12 -1 7 -2 140 -3 296 l-1
284 230 -4 c217 -3 233 -5 283 -27z"/>
<path d="M3692 1832 c-6 -2 10 -38 35 -80 25 -42 59 -100 74 -128 16 -28 103
-181 194 -339 l166 -288 2 -246 2 -245 50 0 50 0 5 249 5 250 99 170 c176 303
367 636 372 649 4 10 -34 13 -112 7 -7 -1 -21 -18 -32 -39 -11 -21 -77 -142
-148 -268 -70 -126 -135 -242 -144 -259 -97 -174 -92 -167 -105 -148 -6 10
-29 50 -50 88 -62 114 -97 179 -111 200 -6 11 -48 85 -91 165 -117 214 -135
244 -144 254 -8 9 -97 15 -117 8z"/>
<path d="M6199 1829 c-5 -3 -8 -275 -7 -664 l3 -658 43 1 c23 0 47 1 52 1 6 1
10 108 10 299 l0 299 223 -2 c122 -1 236 -5 252 -10 62 -17 133 -74 160 -129
23 -47 26 -66 29 -192 4 -149 15 -207 46 -246 17 -22 25 -25 72 -21 62 4 66 7
45 31 -38 42 -50 94 -53 236 -4 155 -19 223 -61 278 -31 40 -93 83 -136 93
-27 7 -26 8 34 44 67 39 119 102 145 172 18 52 21 157 4 220 -14 53 -71 141
-108 166 -36 23 -110 64 -117 63 -3 -1 -31 4 -63 11 -58 12 -555 19 -573 8z
m600 -112 c67 -26 107 -61 135 -119 45 -92 38 -203 -17 -287 -19 -28 -45 -49
-94 -73 l-68 -33 -227 -4 -228 -3 0 272 0 272 228 -4 c182 -4 236 -8 271 -21z"/>
<path d="M7420 1832 c-12 -4 -14 -1321 -2 -1323 33 -5 84 -4 93 1 7 5 10 104
10 314 l0 307 77 -1 c42 -1 179 -1 303 -1 l227 1 4 45 c3 42 2 45 -22 46 -14
0 -151 1 -305 2 l-280 2 -2 258 -2 257 349 0 c273 0 350 3 351 13 2 14 2 70 0
77 -1 5 -785 7 -801 2z"/>
<path d="M8475 1831 c-3 -2 -5 -300 -5 -662 0 -517 3 -658 13 -661 6 -2 30 -4
52 -3 l40 1 0 664 0 664 -48 1 c-26 0 -50 -1 -52 -4z"/>
<path d="M9394 1831 c-2 -2 -4 -302 -3 -665 l0 -661 55 0 c29 0 54 2 55 5 0 3
1 140 2 305 l2 300 375 0 375 0 0 -305 1 -305 44 -1 c25 0 50 1 56 3 15 5 15
1321 0 1326 -6 2 -31 3 -55 2 l-44 0 -1 -313 0 -312 -377 0 -377 0 0 293 c0
160 -1 301 -1 312 -1 17 -8 20 -52 20 -27 0 -52 -2 -55 -4z"/>
<path d="M10691 1346 c0 -444 2 -496 18 -548 64 -201 227 -310 463 -309 188 1
348 91 418 235 46 97 48 124 49 629 1 262 -2 477 -6 478 -5 0 -29 2 -55 3
l-48 2 0 -476 c0 -406 -2 -484 -16 -530 -21 -70 -53 -120 -109 -166 -146 -122
-389 -108 -516 29 -36 40 -75 119 -84 174 -3 23 -7 249 -7 502 0 254 -3 462
-7 462 -3 1 -27 2 -54 3 l-47 2 1 -490z"/>
<path d="M8930 581 l0 -76 48 1 c26 1 54 2 62 3 13 1 15 14 14 69 -1 37 -2 70
-3 73 -1 3 -28 5 -61 5 l-60 0 0 -75z"/>
</g>
</svg>
